<?xml version="1.0" standalone="no"?>
<!DOCTYPE svg PUBLIC "-//W3C//DTD SVG 20010904//EN"
 "http://www.w3.org/TR/2001/REC-SVG-20010904/DTD/svg10.dtd">
<svg version="1.0" xmlns="http://www.w3.org/2000/svg"
 width="600.000000pt" height="600.000000pt" viewBox="0 0 600.000000 600.000000"
 preserveAspectRatio="xMidYMid meet">
<metadata>
Created by potrace 1.14, written by Peter Selinger 2001-2017
</metadata>
<g transform="translate(0.000000,600.000000) scale(0.100000,-0.100000)"
fill="#000000" stroke="none">
<path d="M17 5362 c-16 -17 -17 -196 -17 -2365 0 -2119 2 -2347 16 -2361 14
-15 299 -16 2984 -16 2685 0 2970 1 2984 16 14 14 16 242 16 2363 0 2262 -1
2349 -18 2364 -17 16 -239 17 -2984 17 -2860 0 -2965 -1 -2981 -18z m443
-1501 c0 -1286 2 -1431 16 -1445 12 -13 41 -16 148 -16 89 0 136 -4 144 -12 9
-9 12 -204 12 -816 l0 -804 -29 -29 -29 -29 -290 0 -290 0 -26 31 -26 31 0
2259 0 2259 185 0 185 0 0 -1429z m57 -594 c-1 -370 -2 -64 -2 678 0 743 1
1045 2 672 2 -373 2 -981 0 -1350z m443 671 c0 -877 -4 -1348 -10 -1338 -14
21 -14 2690 0 2690 7 0 10 -457 10 -1352z m370 -75 c0 -848 4 -1434 9 -1442 7
-10 33 -16 78 -19 37 -2 74 -9 81 -14 9 -8 12 -184 12 -820 l0 -809 -26 -24
-27 -25 -288 0 -288 0 -28 24 -28 24 -3 801 c-2 547 1 808 8 821 9 17 21 20
75 20 52 0 69 4 85 20 20 20 20 33 20 1445 l0 1425 160 0 160 0 0 -1427z m57
-596 c-1 -370 -2 -64 -2 678 0 743 1 1045 2 672 2 -373 2 -981 0 -1350z m443
671 c0 -877 -4 -1348 -10 -1338 -14 21 -14 2690 0 2690 7 0 10 -457 10 -1352z
m410 -913 l0 -2266 -25 -24 -24 -25 -291 0 -291 0 -24 25 -25 24 0 809 c0 615
3 811 12 820 8 8 54 12 140 12 115 0 130 2 148 20 20 20 20 33 20 1445 l0
1425 180 0 180 0 0 -2265z m420 830 c0 -1408 0 -1434 19 -1445 11 -5 78 -10
150 -10 119 0 131 -2 141 -19 7 -13 10 -286 10 -816 l0 -797 -29 -29 -29 -29
-289 0 c-302 1 -307 1 -331 47 -9 16 -12 582 -12 2277 l0 2256 185 0 185 0 0
-1435z m50 -1253 c-6 -11 -9 451 -10 1329 0 740 3 1349 8 1353 11 12 14 -2663
2 -2682z m449 1331 c0 -767 -4 -1349 -9 -1338 -13 29 -13 2695 0 2695 7 0 10
-459 9 -1357z m301 -72 c0 -1286 2 -1431 16 -1445 12 -12 38 -16 113 -16 62 0
101 -4 109 -12 9 -9 12 -204 12 -816 l0 -804 -29 -29 -29 -29 -290 0 -290 0
-26 31 -26 31 0 794 c0 529 3 802 10 815 9 15 22 19 71 19 33 0 69 5 80 10 19
11 19 37 19 1439 0 785 3 1431 7 1434 3 4 62 7 130 7 l123 0 0 -1429z m57
-594 c-1 -370 -2 -64 -2 678 0 743 1 1045 2 672 2 -373 2 -981 0 -1350z m442
666 c0 -767 -4 -1349 -9 -1338 -13 29 -13 2695 0 2695 7 0 10 -459 9 -1357z
m301 -72 l0 -1430 22 -15 c14 -10 44 -16 78 -16 31 0 61 -5 68 -12 9 -9 12
-205 12 -820 l0 -809 -25 -24 -24 -25 -290 0 -290 0 -28 24 -28 24 -3 801 c-2
547 1 808 8 821 10 18 21 20 110 20 159 0 140 -198 140 1465 l0 1425 125 0
125 0 0 -1429z m57 -594 c-1 -370 -2 -64 -2 678 0 743 1 1045 2 672 2 -373 2
-981 0 -1350z m442 671 c0 -764 -4 -1344 -9 -1333 -13 29 -13 2685 0 2685 7 0
10 -457 9 -1352z m419 -883 c1 -1227 0 -2245 -3 -2264 -4 -18 -17 -44 -30 -57
l-24 -24 -291 0 -291 0 -24 25 -25 24 0 809 c0 615 3 811 12 820 8 8 53 12
138 12 97 0 131 3 148 16 l22 15 0 1430 0 1429 183 -2 182 -3 3 -2230z m732
-26 l0 -2261 -29 -29 -29 -29 -290 0 -290 0 -26 31 -26 31 0 2259 0 2259 345
0 345 0 0 -2261z m-4993 -175 c-8 -77 -16 -84 -96 -84 l-66 1 38 14 c48 17 85
50 103 93 21 47 28 39 21 -24z m861 -51 c-12 -26 -18 -28 -83 -30 l-70 -3 38
14 c49 18 85 51 106 96 l16 35 3 -42 c2 -24 -3 -55 -10 -70z m2138 50 c-4 -31
-12 -63 -18 -70 -7 -8 -34 -13 -77 -13 l-66 1 38 14 c47 16 81 46 102 91 9 19
19 34 22 34 3 0 3 -26 -1 -57z m789 -59 c-14 -22 -22 -24 -83 -24 l-67 1 39
14 c46 16 90 56 108 99 l13 31 3 -48 c2 -32 -2 -57 -13 -73z m-1606 -10 c-8
-10 -32 -14 -78 -13 -52 1 -60 2 -38 9 43 13 92 55 108 92 l14 33 3 -53 c2
-31 -2 -60 -9 -68z"/>
</g>
</svg>
